<?xml version="1.0" standalone="no"?><!DOCTYPE svg PUBLIC "-//W3C//DTD SVG 1.1//EN" "http://www.w3.org/Graphics/SVG/1.1/DTD/svg11.dtd"><svg t="1557559963866" class="icon" style="" viewBox="0 0 1070 1024" version="1.1" xmlns="http://www.w3.org/2000/svg" p-id="17193" xmlns:xlink="http://www.w3.org/1999/xlink" width="50.15625" height="48"><defs><style type="text/css"></style></defs><path d="M499.228764 897.31164l-211.668854 109.878652a77.662921 77.662921 0 0 1-112.294831-82.219146l39.936-229.974292a77.662921 77.662921 0 0 0-22.666068-69.252315L24.069753 463.572854a77.662921 77.662921 0 0 1 42.82391-132.83236l234.576539-33.665438a77.662921 77.662921 0 0 0 58.44854-42.145078l105.621573-211.358203a77.662921 77.662921 0 0 1 138.953348 0l105.621573 211.358203a77.662921 77.662921 0 0 0 58.448539 42.145078l234.57654 33.665438A77.662921 77.662921 0 0 1 1045.97573 463.561348L877.475955 625.744539a77.662921 77.662921 0 0 0-22.666067 69.252315l39.947505 229.974292a77.662921 77.662921 0 0 1-112.294831 82.219146l-211.668854-109.878652a77.662921 77.662921 0 0 0-71.564944 0z" fill="#FFEB9A" p-id="17194"></path><path d="M517.200539 838.759551L267.965843 967.346337a38.831461 38.831461 0 0 1-56.055371-41.190112l47.242067-270.301483a38.831461 38.831461 0 0 0-11.402067-34.746967L48.174022 430.218067a38.831461 38.831461 0 0 1 21.354427-66.502471l277.101304-39.510293a38.831461 38.831461 0 0 0 29.224269-20.997752L500.310292 55.687191a38.831461 38.831461 0 0 1 69.378877 0l124.467775 247.485843a38.831461 38.831461 0 0 0 29.212764 21.009258l277.101303 39.510292a38.831461 38.831461 0 0 1 21.365933 66.502472L822.272 621.119281a38.831461 38.831461 0 0 0-11.413573 34.746966l47.242067 270.289978a38.831461 38.831461 0 0 1-56.05537 41.190112L552.810427 838.759551c-11.160449-5.752809-24.437933-5.752809-35.609888 0z" fill="#FFFFFF" p-id="17195"></path><path d="M522.700225 812.963955l-245.57591 127.942472a26.624 26.624 0 0 1-38.543821-28.165753l46.793349-270.266966a26.624 26.624 0 0 0-7.743281-23.701573L79.641888 427.537258A26.624 26.624 0 0 1 94.346067 382.021034l274.052315-39.46427a26.624 26.624 0 0 0 20.042787-14.474067L511.171596 81.655371a26.624 26.624 0 0 1 47.67928 0l122.730427 246.427326c3.91191 7.82382 11.390562 13.231461 20.042787 14.485573l274.06382 39.464269a26.624 26.624 0 0 1 14.692674 45.504719L792.39191 618.760629a26.624 26.624 0 0 0-7.743281 23.701573l46.781843 270.266967a26.624 26.624 0 0 1-38.54382 28.165752L547.322247 812.963955a26.624 26.624 0 0 0-24.599011 0z" fill="#FFCD08" p-id="17196"></path></svg>